<?xml version="1.0" encoding="UTF-8" standalone="no"?>
<!DOCTYPE svg PUBLIC "-//W3C//DTD SVG 1.1//EN"
 "http://www.w3.org/Graphics/SVG/1.1/DTD/svg11.dtd">
<!-- Generated by graphviz version 2.49.1 (0)
 -->
<!-- Title: Tree Pages: 1 -->
<svg width="562pt" height="433pt"
 viewBox="0.00 0.00 562.00 433.00" xmlns="http://www.w3.org/2000/svg" xmlns:xlink="http://www.w3.org/1999/xlink">
<g id="graph0" class="graph" transform="scale(1 1) rotate(0) translate(4 429)">
<title>Tree</title>
<polygon fill="white" stroke="transparent" points="-4,4 -4,-429 558,-429 558,4 -4,4"/>
<!-- 0 -->
<g id="node1" class="node">
<title>0</title>
<path fill="#fffdfc" stroke="black" d="M271.5,-425C271.5,-425 132.5,-425 132.5,-425 126.5,-425 120.5,-419 120.5,-413 120.5,-413 120.5,-354 120.5,-354 120.5,-348 126.5,-342 132.5,-342 132.5,-342 271.5,-342 271.5,-342 277.5,-342 283.5,-348 283.5,-354 283.5,-354 283.5,-413 283.5,-413 283.5,-419 277.5,-425 271.5,-425"/>
<text text-anchor="start" x="128.5" y="-409.8" font-family="Helvetica,sans-Serif" font-size="14.00">petal length (cm) ≤ 2.45</text>
<text text-anchor="start" x="165.5" y="-394.8" font-family="Helvetica,sans-Serif" font-size="14.00">gini = 0.667</text>
<text text-anchor="start" x="156.5" y="-379.8" font-family="Helvetica,sans-Serif" font-size="14.00">samples = 112</text>
<text text-anchor="start" x="142" y="-364.8" font-family="Helvetica,sans-Serif" font-size="14.00">value = [38, 37, 37]</text>
<text text-anchor="start" x="157" y="-349.8" font-family="Helvetica,sans-Serif" font-size="14.00">class = setosa</text>
</g>
<!-- 1 -->
<g id="node2" class="node">
<title>1</title>
<path fill="#e58139" stroke="black" d="M174,-298.5C174,-298.5 78,-298.5 78,-298.5 72,-298.5 66,-292.5 66,-286.5 66,-286.5 66,-242.5 66,-242.5 66,-236.5 72,-230.5 78,-230.5 78,-230.5 174,-230.5 174,-230.5 180,-230.5 186,-236.5 186,-242.5 186,-242.5 186,-286.5 186,-286.5 186,-292.5 180,-298.5 174,-298.5"/>
<text text-anchor="start" x="97" y="-283.3" font-family="Helvetica,sans-Serif" font-size="14.00">gini = 0.0</text>
<text text-anchor="start" x="84" y="-268.3" font-family="Helvetica,sans-Serif" font-size="14.00">samples = 38</text>
<text text-anchor="start" x="74" y="-253.3" font-family="Helvetica,sans-Serif" font-size="14.00">value = [38, 0, 0]</text>
<text text-anchor="start" x="81" y="-238.3" font-family="Helvetica,sans-Serif" font-size="14.00">class = setosa</text>
</g>
<!-- 0&#45;&gt;1 -->
<g id="edge1" class="edge">
<title>0&#45;&gt;1</title>
<path fill="none" stroke="black" d="M175.63,-341.91C168.32,-330.65 160.37,-318.42 153.03,-307.11"/>
<polygon fill="black" stroke="black" points="155.93,-305.15 147.54,-298.67 150.06,-308.96 155.93,-305.15"/>
<text text-anchor="middle" x="142.35" y="-319.42" font-family="Helvetica,sans-Serif" font-size="14.00">True</text>
</g>
<!-- 2 -->
<g id="node3" class="node">
<title>2</title>
<path fill="#ffffff" stroke="black" d="M342,-306C342,-306 216,-306 216,-306 210,-306 204,-300 204,-294 204,-294 204,-235 204,-235 204,-229 210,-223 216,-223 216,-223 342,-223 342,-223 348,-223 354,-229 354,-235 354,-235 354,-294 354,-294 354,-300 348,-306 342,-306"/>
<text text-anchor="start" x="212" y="-290.8" font-family="Helvetica,sans-Serif" font-size="14.00">petal width (cm) ≤ 1.7</text>
<text text-anchor="start" x="250" y="-275.8" font-family="Helvetica,sans-Serif" font-size="14.00">gini = 0.5</text>
<text text-anchor="start" x="237" y="-260.8" font-family="Helvetica,sans-Serif" font-size="14.00">samples = 74</text>
<text text-anchor="start" x="223" y="-245.8" font-family="Helvetica,sans-Serif" font-size="14.00">value = [0, 37, 37]</text>
<text text-anchor="start" x="225" y="-230.8" font-family="Helvetica,sans-Serif" font-size="14.00">class = versicolor</text>
</g>
<!-- 0&#45;&gt;2 -->
<g id="edge2" class="edge">
<title>0&#45;&gt;2</title>
<path fill="none" stroke="black" d="M228.71,-341.91C234.51,-333.1 240.7,-323.7 246.68,-314.61"/>
<polygon fill="black" stroke="black" points="249.76,-316.3 252.33,-306.02 243.91,-312.45 249.76,-316.3"/>
<text text-anchor="middle" x="257.38" y="-326.81" font-family="Helvetica,sans-Serif" font-size="14.00">False</text>
</g>
<!-- 3 -->
<g id="node4" class="node">
<title>3</title>
<path fill="#49e78c" stroke="black" d="M256.5,-187C256.5,-187 117.5,-187 117.5,-187 111.5,-187 105.5,-181 105.5,-175 105.5,-175 105.5,-116 105.5,-116 105.5,-110 111.5,-104 117.5,-104 117.5,-104 256.5,-104 256.5,-104 262.5,-104 268.5,-110 268.5,-116 268.5,-116 268.5,-175 268.5,-175 268.5,-181 262.5,-187 256.5,-187"/>
<text text-anchor="start" x="113.5" y="-171.8" font-family="Helvetica,sans-Serif" font-size="14.00">petal length (cm) ≤ 4.95</text>
<text text-anchor="start" x="150.5" y="-156.8" font-family="Helvetica,sans-Serif" font-size="14.00">gini = 0.142</text>
<text text-anchor="start" x="145" y="-141.8" font-family="Helvetica,sans-Serif" font-size="14.00">samples = 39</text>
<text text-anchor="start" x="135" y="-126.8" font-family="Helvetica,sans-Serif" font-size="14.00">value = [0, 36, 3]</text>
<text text-anchor="start" x="133" y="-111.8" font-family="Helvetica,sans-Serif" font-size="14.00">class = versicolor</text>
</g>
<!-- 2&#45;&gt;3 -->
<g id="edge3" class="edge">
<title>2&#45;&gt;3</title>
<path fill="none" stroke="black" d="M247.08,-222.91C240.02,-213.92 232.46,-204.32 225.18,-195.05"/>
<polygon fill="black" stroke="black" points="227.8,-192.72 218.86,-187.02 222.29,-197.05 227.8,-192.72"/>
</g>
<!-- 6 -->
<g id="node7" class="node">
<title>6</title>
<path fill="#853fe6" stroke="black" d="M441.5,-187C441.5,-187 298.5,-187 298.5,-187 292.5,-187 286.5,-181 286.5,-175 286.5,-175 286.5,-116 286.5,-116 286.5,-110 292.5,-104 298.5,-104 298.5,-104 441.5,-104 441.5,-104 447.5,-104 453.5,-110 453.5,-116 453.5,-116 453.5,-175 453.5,-175 453.5,-181 447.5,-187 441.5,-187"/>
<text text-anchor="start" x="294.5" y="-171.8" font-family="Helvetica,sans-Serif" font-size="14.00">sepal length (cm) ≤ 6.05</text>
<text text-anchor="start" x="333.5" y="-156.8" font-family="Helvetica,sans-Serif" font-size="14.00">gini = 0.056</text>
<text text-anchor="start" x="328" y="-141.8" font-family="Helvetica,sans-Serif" font-size="14.00">samples = 35</text>
<text text-anchor="start" x="318" y="-126.8" font-family="Helvetica,sans-Serif" font-size="14.00">value = [0, 1, 34]</text>
<text text-anchor="start" x="320" y="-111.8" font-family="Helvetica,sans-Serif" font-size="14.00">class = virginica</text>
</g>
<!-- 2&#45;&gt;6 -->
<g id="edge6" class="edge">
<title>2&#45;&gt;6</title>
<path fill="none" stroke="black" d="M310.57,-222.91C317.56,-213.92 325.03,-204.32 332.24,-195.05"/>
<polygon fill="black" stroke="black" points="335.11,-197.06 338.48,-187.02 329.58,-192.77 335.11,-197.06"/>
</g>
<!-- 4 -->
<g id="node5" class="node">
<title>4</title>
<path fill="#39e581" stroke="black" d="M112,-68C112,-68 12,-68 12,-68 6,-68 0,-62 0,-56 0,-56 0,-12 0,-12 0,-6 6,0 12,0 12,0 112,0 112,0 118,0 124,-6 124,-12 124,-12 124,-56 124,-56 124,-62 118,-68 112,-68"/>
<text text-anchor="start" x="33" y="-52.8" font-family="Helvetica,sans-Serif" font-size="14.00">gini = 0.0</text>
<text text-anchor="start" x="20" y="-37.8" font-family="Helvetica,sans-Serif" font-size="14.00">samples = 35</text>
<text text-anchor="start" x="10" y="-22.8" font-family="Helvetica,sans-Serif" font-size="14.00">value = [0, 35, 0]</text>
<text text-anchor="start" x="8" y="-7.8" font-family="Helvetica,sans-Serif" font-size="14.00">class = versicolor</text>
</g>
<!-- 3&#45;&gt;4 -->
<g id="edge4" class="edge">
<title>3&#45;&gt;4</title>
<path fill="none" stroke="black" d="M140.45,-103.73C129.73,-94.33 118.33,-84.35 107.65,-74.99"/>
<polygon fill="black" stroke="black" points="109.84,-72.26 100.01,-68.3 105.23,-77.52 109.84,-72.26"/>
</g>
<!-- 5 -->
<g id="node6" class="node">
<title>5</title>
<path fill="#ab7bee" stroke="black" d="M246,-68C246,-68 154,-68 154,-68 148,-68 142,-62 142,-56 142,-56 142,-12 142,-12 142,-6 148,0 154,0 154,0 246,0 246,0 252,0 258,-6 258,-12 258,-12 258,-56 258,-56 258,-62 252,-68 246,-68"/>
<text text-anchor="start" x="163.5" y="-52.8" font-family="Helvetica,sans-Serif" font-size="14.00">gini = 0.375</text>
<text text-anchor="start" x="162" y="-37.8" font-family="Helvetica,sans-Serif" font-size="14.00">samples = 4</text>
<text text-anchor="start" x="151.5" y="-22.8" font-family="Helvetica,sans-Serif" font-size="14.00">value = [0, 1, 3]</text>
<text text-anchor="start" x="150" y="-7.8" font-family="Helvetica,sans-Serif" font-size="14.00">class = virginica</text>
</g>
<!-- 3&#45;&gt;5 -->
<g id="edge5" class="edge">
<title>3&#45;&gt;5</title>
<path fill="none" stroke="black" d="M191.84,-103.73C192.83,-95.43 193.87,-86.67 194.86,-78.28"/>
<polygon fill="black" stroke="black" points="198.34,-78.64 196.05,-68.3 191.39,-77.82 198.34,-78.64"/>
</g>
<!-- 7 -->
<g id="node8" class="node">
<title>7</title>
<path fill="#965ae9" stroke="black" d="M404,-68C404,-68 312,-68 312,-68 306,-68 300,-62 300,-56 300,-56 300,-12 300,-12 300,-6 306,0 312,0 312,0 404,0 404,0 410,0 416,-6 416,-12 416,-12 416,-56 416,-56 416,-62 410,-68 404,-68"/>
<text text-anchor="start" x="321.5" y="-52.8" font-family="Helvetica,sans-Serif" font-size="14.00">gini = 0.245</text>
<text text-anchor="start" x="320" y="-37.8" font-family="Helvetica,sans-Serif" font-size="14.00">samples = 7</text>
<text text-anchor="start" x="309.5" y="-22.8" font-family="Helvetica,sans-Serif" font-size="14.00">value = [0, 1, 6]</text>
<text text-anchor="start" x="308" y="-7.8" font-family="Helvetica,sans-Serif" font-size="14.00">class = virginica</text>
</g>
<!-- 6&#45;&gt;7 -->
<g id="edge7" class="edge">
<title>6&#45;&gt;7</title>
<path fill="none" stroke="black" d="M365.53,-103.73C364.62,-95.43 363.66,-86.67 362.74,-78.28"/>
<polygon fill="black" stroke="black" points="366.22,-77.86 361.65,-68.3 359.26,-78.62 366.22,-77.86"/>
</g>
<!-- 8 -->
<g id="node9" class="node">
<title>8</title>
<path fill="#8139e5" stroke="black" d="M542,-68C542,-68 446,-68 446,-68 440,-68 434,-62 434,-56 434,-56 434,-12 434,-12 434,-6 440,0 446,0 446,0 542,0 542,0 548,0 554,-6 554,-12 554,-12 554,-56 554,-56 554,-62 548,-68 542,-68"/>
<text text-anchor="start" x="465" y="-52.8" font-family="Helvetica,sans-Serif" font-size="14.00">gini = 0.0</text>
<text text-anchor="start" x="452" y="-37.8" font-family="Helvetica,sans-Serif" font-size="14.00">samples = 28</text>
<text text-anchor="start" x="442" y="-22.8" font-family="Helvetica,sans-Serif" font-size="14.00">value = [0, 0, 28]</text>
<text text-anchor="start" x="444" y="-7.8" font-family="Helvetica,sans-Serif" font-size="14.00">class = virginica</text>
</g>
<!-- 6&#45;&gt;8 -->
<g id="edge8" class="edge">
<title>6&#45;&gt;8</title>
<path fill="none" stroke="black" d="M416.17,-103.73C426.81,-94.33 438.12,-84.35 448.72,-74.99"/>
<polygon fill="black" stroke="black" points="451.11,-77.54 456.29,-68.3 446.48,-72.3 451.11,-77.54"/>
</g>
</g>
</svg>
