<?xml version="1.0" encoding="UTF-8" standalone="no"?>
<!DOCTYPE svg PUBLIC "-//W3C//DTD SVG 1.1//EN"
 "http://www.w3.org/Graphics/SVG/1.1/DTD/svg11.dtd">
<!-- Generated by graphviz version 2.49.1 (20211004.0028)
 -->
<!-- Title: Tree Pages: 1 -->
<svg width="550pt" height="433pt"
 viewBox="0.00 0.00 550.00 433.00" xmlns="http://www.w3.org/2000/svg" xmlns:xlink="http://www.w3.org/1999/xlink">
<g id="graph0" class="graph" transform="scale(1 1) rotate(0) translate(4 429)">
<title>Tree</title>
<polygon fill="white" stroke="transparent" points="-4,4 -4,-429 546,-429 546,4 -4,4"/>
<!-- 0 -->
<g id="node1" class="node">
<title>0</title>
<path fill="#fffdfc" stroke="black" d="M265,-425C265,-425 130,-425 130,-425 124,-425 118,-419 118,-413 118,-413 118,-354 118,-354 118,-348 124,-342 130,-342 130,-342 265,-342 265,-342 271,-342 277,-348 277,-354 277,-354 277,-413 277,-413 277,-419 271,-425 265,-425"/>
<text text-anchor="start" x="126" y="-409.8" font-family="Helvetica,sans-Serif" font-size="14.00">petal length (cm) ≤ 2.45</text>
<text text-anchor="start" x="162" y="-394.8" font-family="Helvetica,sans-Serif" font-size="14.00">gini = 0.667</text>
<text text-anchor="start" x="152.5" y="-379.8" font-family="Helvetica,sans-Serif" font-size="14.00">samples = 112</text>
<text text-anchor="start" x="139.5" y="-364.8" font-family="Helvetica,sans-Serif" font-size="14.00">value = [38, 37, 37]</text>
<text text-anchor="start" x="154" y="-349.8" font-family="Helvetica,sans-Serif" font-size="14.00">class = setosa</text>
</g>
<!-- 1 -->
<g id="node2" class="node">
<title>1</title>
<path fill="#e58139" stroke="black" d="M169,-298.5C169,-298.5 76,-298.5 76,-298.5 70,-298.5 64,-292.5 64,-286.5 64,-286.5 64,-242.5 64,-242.5 64,-236.5 70,-230.5 76,-230.5 76,-230.5 169,-230.5 169,-230.5 175,-230.5 181,-236.5 181,-242.5 181,-242.5 181,-286.5 181,-286.5 181,-292.5 175,-298.5 169,-298.5"/>
<text text-anchor="start" x="94.5" y="-283.3" font-family="Helvetica,sans-Serif" font-size="14.00">gini = 0.0</text>
<text text-anchor="start" x="81.5" y="-268.3" font-family="Helvetica,sans-Serif" font-size="14.00">samples = 38</text>
<text text-anchor="start" x="72" y="-253.3" font-family="Helvetica,sans-Serif" font-size="14.00">value = [38, 0, 0]</text>
<text text-anchor="start" x="79" y="-238.3" font-family="Helvetica,sans-Serif" font-size="14.00">class = setosa</text>
</g>
<!-- 0&#45;&gt;1 -->
<g id="edge1" class="edge">
<title>0&#45;&gt;1</title>
<path fill="none" stroke="black" d="M171.48,-341.91C164.26,-330.65 156.42,-318.42 149.17,-307.11"/>
<polygon fill="black" stroke="black" points="152.1,-305.2 143.76,-298.67 146.21,-308.97 152.1,-305.2"/>
<text text-anchor="middle" x="138.42" y="-319.39" font-family="Helvetica,sans-Serif" font-size="14.00">True</text>
</g>
<!-- 2 -->
<g id="node3" class="node">
<title>2</title>
<path fill="#ffffff" stroke="black" d="M333.5,-306C333.5,-306 211.5,-306 211.5,-306 205.5,-306 199.5,-300 199.5,-294 199.5,-294 199.5,-235 199.5,-235 199.5,-229 205.5,-223 211.5,-223 211.5,-223 333.5,-223 333.5,-223 339.5,-223 345.5,-229 345.5,-235 345.5,-235 345.5,-294 345.5,-294 345.5,-300 339.5,-306 333.5,-306"/>
<text text-anchor="start" x="207.5" y="-290.8" font-family="Helvetica,sans-Serif" font-size="14.00">petal width (cm) ≤ 1.7</text>
<text text-anchor="start" x="244.5" y="-275.8" font-family="Helvetica,sans-Serif" font-size="14.00">gini = 0.5</text>
<text text-anchor="start" x="231.5" y="-260.8" font-family="Helvetica,sans-Serif" font-size="14.00">samples = 74</text>
<text text-anchor="start" x="218" y="-245.8" font-family="Helvetica,sans-Serif" font-size="14.00">value = [0, 37, 37]</text>
<text text-anchor="start" x="220" y="-230.8" font-family="Helvetica,sans-Serif" font-size="14.00">class = versicolor</text>
</g>
<!-- 0&#45;&gt;2 -->
<g id="edge2" class="edge">
<title>0&#45;&gt;2</title>
<path fill="none" stroke="black" d="M223.52,-341.91C229.16,-333.1 235.19,-323.7 241.02,-314.61"/>
<polygon fill="black" stroke="black" points="244.07,-316.33 246.53,-306.02 238.18,-312.55 244.07,-316.33"/>
<text text-anchor="middle" x="251.87" y="-326.74" font-family="Helvetica,sans-Serif" font-size="14.00">False</text>
</g>
<!-- 3 -->
<g id="node4" class="node">
<title>3</title>
<path fill="#49e78c" stroke="black" d="M251,-187C251,-187 116,-187 116,-187 110,-187 104,-181 104,-175 104,-175 104,-116 104,-116 104,-110 110,-104 116,-104 116,-104 251,-104 251,-104 257,-104 263,-110 263,-116 263,-116 263,-175 263,-175 263,-181 257,-187 251,-187"/>
<text text-anchor="start" x="112" y="-171.8" font-family="Helvetica,sans-Serif" font-size="14.00">petal length (cm) ≤ 4.95</text>
<text text-anchor="start" x="148" y="-156.8" font-family="Helvetica,sans-Serif" font-size="14.00">gini = 0.142</text>
<text text-anchor="start" x="142.5" y="-141.8" font-family="Helvetica,sans-Serif" font-size="14.00">samples = 39</text>
<text text-anchor="start" x="133" y="-126.8" font-family="Helvetica,sans-Serif" font-size="14.00">value = [0, 36, 3]</text>
<text text-anchor="start" x="131" y="-111.8" font-family="Helvetica,sans-Serif" font-size="14.00">class = versicolor</text>
</g>
<!-- 2&#45;&gt;3 -->
<g id="edge3" class="edge">
<title>2&#45;&gt;3</title>
<path fill="none" stroke="black" d="M241.62,-222.91C234.79,-213.92 227.48,-204.32 220.43,-195.05"/>
<polygon fill="black" stroke="black" points="223.16,-192.86 214.32,-187.02 217.59,-197.1 223.16,-192.86"/>
</g>
<!-- 6 -->
<g id="node7" class="node">
<title>6</title>
<path fill="#853fe6" stroke="black" d="M431.5,-187C431.5,-187 293.5,-187 293.5,-187 287.5,-187 281.5,-181 281.5,-175 281.5,-175 281.5,-116 281.5,-116 281.5,-110 287.5,-104 293.5,-104 293.5,-104 431.5,-104 431.5,-104 437.5,-104 443.5,-110 443.5,-116 443.5,-116 443.5,-175 443.5,-175 443.5,-181 437.5,-187 431.5,-187"/>
<text text-anchor="start" x="289.5" y="-171.8" font-family="Helvetica,sans-Serif" font-size="14.00">sepal length (cm) ≤ 6.05</text>
<text text-anchor="start" x="327" y="-156.8" font-family="Helvetica,sans-Serif" font-size="14.00">gini = 0.056</text>
<text text-anchor="start" x="321.5" y="-141.8" font-family="Helvetica,sans-Serif" font-size="14.00">samples = 35</text>
<text text-anchor="start" x="312" y="-126.8" font-family="Helvetica,sans-Serif" font-size="14.00">value = [0, 1, 34]</text>
<text text-anchor="start" x="314" y="-111.8" font-family="Helvetica,sans-Serif" font-size="14.00">class = virginica</text>
</g>
<!-- 2&#45;&gt;6 -->
<g id="edge6" class="edge">
<title>2&#45;&gt;6</title>
<path fill="none" stroke="black" d="M303.73,-222.91C310.64,-213.92 318.03,-204.32 325.15,-195.05"/>
<polygon fill="black" stroke="black" points="328.01,-197.08 331.33,-187.02 322.46,-192.81 328.01,-197.08"/>
</g>
<!-- 4 -->
<g id="node5" class="node">
<title>4</title>
<path fill="#39e581" stroke="black" d="M109,-68C109,-68 12,-68 12,-68 6,-68 0,-62 0,-56 0,-56 0,-12 0,-12 0,-6 6,0 12,0 12,0 109,0 109,0 115,0 121,-6 121,-12 121,-12 121,-56 121,-56 121,-62 115,-68 109,-68"/>
<text text-anchor="start" x="32.5" y="-52.8" font-family="Helvetica,sans-Serif" font-size="14.00">gini = 0.0</text>
<text text-anchor="start" x="19.5" y="-37.8" font-family="Helvetica,sans-Serif" font-size="14.00">samples = 35</text>
<text text-anchor="start" x="10" y="-22.8" font-family="Helvetica,sans-Serif" font-size="14.00">value = [0, 35, 0]</text>
<text text-anchor="start" x="8" y="-7.8" font-family="Helvetica,sans-Serif" font-size="14.00">class = versicolor</text>
</g>
<!-- 3&#45;&gt;4 -->
<g id="edge4" class="edge">
<title>3&#45;&gt;4</title>
<path fill="none" stroke="black" d="M137.7,-103.73C127.15,-94.33 115.93,-84.35 105.42,-74.99"/>
<polygon fill="black" stroke="black" points="107.7,-72.33 97.91,-68.3 103.05,-77.56 107.7,-72.33"/>
</g>
<!-- 5 -->
<g id="node6" class="node">
<title>5</title>
<path fill="#ab7bee" stroke="black" d="M240,-68C240,-68 151,-68 151,-68 145,-68 139,-62 139,-56 139,-56 139,-12 139,-12 139,-6 145,0 151,0 151,0 240,0 240,0 246,0 252,-6 252,-12 252,-12 252,-56 252,-56 252,-62 246,-68 240,-68"/>
<text text-anchor="start" x="160" y="-52.8" font-family="Helvetica,sans-Serif" font-size="14.00">gini = 0.375</text>
<text text-anchor="start" x="158" y="-37.8" font-family="Helvetica,sans-Serif" font-size="14.00">samples = 4</text>
<text text-anchor="start" x="148.5" y="-22.8" font-family="Helvetica,sans-Serif" font-size="14.00">value = [0, 1, 3]</text>
<text text-anchor="start" x="147" y="-7.8" font-family="Helvetica,sans-Serif" font-size="14.00">class = virginica</text>
</g>
<!-- 3&#45;&gt;5 -->
<g id="edge5" class="edge">
<title>3&#45;&gt;5</title>
<path fill="none" stroke="black" d="M187.97,-103.73C188.88,-95.43 189.84,-86.67 190.76,-78.28"/>
<polygon fill="black" stroke="black" points="194.24,-78.62 191.85,-68.3 187.28,-77.86 194.24,-78.62"/>
</g>
<!-- 7 -->
<g id="node8" class="node">
<title>7</title>
<path fill="#965ae9" stroke="black" d="M395,-68C395,-68 306,-68 306,-68 300,-68 294,-62 294,-56 294,-56 294,-12 294,-12 294,-6 300,0 306,0 306,0 395,0 395,0 401,0 407,-6 407,-12 407,-12 407,-56 407,-56 407,-62 401,-68 395,-68"/>
<text text-anchor="start" x="315" y="-52.8" font-family="Helvetica,sans-Serif" font-size="14.00">gini = 0.245</text>
<text text-anchor="start" x="313" y="-37.8" font-family="Helvetica,sans-Serif" font-size="14.00">samples = 7</text>
<text text-anchor="start" x="303.5" y="-22.8" font-family="Helvetica,sans-Serif" font-size="14.00">value = [0, 1, 6]</text>
<text text-anchor="start" x="302" y="-7.8" font-family="Helvetica,sans-Serif" font-size="14.00">class = virginica</text>
</g>
<!-- 6&#45;&gt;7 -->
<g id="edge7" class="edge">
<title>6&#45;&gt;7</title>
<path fill="none" stroke="black" d="M358.03,-103.73C357.12,-95.43 356.16,-86.67 355.24,-78.28"/>
<polygon fill="black" stroke="black" points="358.72,-77.86 354.15,-68.3 351.76,-78.62 358.72,-77.86"/>
</g>
<!-- 8 -->
<g id="node9" class="node">
<title>8</title>
<path fill="#8139e5" stroke="black" d="M530,-68C530,-68 437,-68 437,-68 431,-68 425,-62 425,-56 425,-56 425,-12 425,-12 425,-6 431,0 437,0 437,0 530,0 530,0 536,0 542,-6 542,-12 542,-12 542,-56 542,-56 542,-62 536,-68 530,-68"/>
<text text-anchor="start" x="455.5" y="-52.8" font-family="Helvetica,sans-Serif" font-size="14.00">gini = 0.0</text>
<text text-anchor="start" x="442.5" y="-37.8" font-family="Helvetica,sans-Serif" font-size="14.00">samples = 28</text>
<text text-anchor="start" x="433" y="-22.8" font-family="Helvetica,sans-Serif" font-size="14.00">value = [0, 0, 28]</text>
<text text-anchor="start" x="435" y="-7.8" font-family="Helvetica,sans-Serif" font-size="14.00">class = virginica</text>
</g>
<!-- 6&#45;&gt;8 -->
<g id="edge8" class="edge">
<title>6&#45;&gt;8</title>
<path fill="none" stroke="black" d="M407.56,-103.73C417.84,-94.42 428.75,-84.54 439.01,-75.26"/>
<polygon fill="black" stroke="black" points="441.64,-77.6 446.7,-68.3 436.94,-72.41 441.64,-77.6"/>
</g>
</g>
</svg>
